<?xml version="1.0" standalone="no"?>
<!DOCTYPE svg PUBLIC "-//W3C//DTD SVG 20010904//EN"
 "http://www.w3.org/TR/2001/REC-SVG-20010904/DTD/svg10.dtd">
<svg version="1.0" xmlns="http://www.w3.org/2000/svg"
 width="1546.000000pt" height="453.000000pt" viewBox="0 0 1546.000000 453.000000"
 preserveAspectRatio="xMidYMid meet">
<metadata>
Created by potrace 1.11, written by Peter Selinger 2001-2013
</metadata>
<g transform="translate(0.000000,453.000000) scale(0.100000,-0.100000)"
fill="#000000" stroke="none">
<path d="M2440 4520 c-25 -5 -90 -9 -145 -9 -184 -2 -361 -26 -445 -61 -119
-50 -141 -57 -212 -68 -43 -6 -100 -26 -160 -55 -51 -25 -128 -57 -170 -71
-43 -14 -99 -41 -126 -60 -26 -19 -70 -44 -96 -56 -27 -11 -65 -33 -85 -49
-20 -16 -64 -45 -97 -65 -34 -19 -74 -50 -90 -68 -16 -19 -61 -59 -99 -90 -65
-52 -269 -267 -345 -363 -18 -22 -43 -62 -57 -90 -14 -27 -41 -71 -59 -96 -18
-25 -46 -82 -62 -126 -15 -44 -44 -104 -64 -134 -43 -66 -68 -139 -74 -216 -7
-93 -25 -202 -40 -246 -20 -58 -20 -644 1 -715 13 -45 33 -144 41 -206 5 -43
13 -62 50 -128 19 -33 48 -95 65 -137 17 -42 45 -98 63 -126 18 -27 49 -79 69
-115 19 -36 44 -74 54 -85 10 -11 67 -81 126 -155 87 -108 132 -154 230 -233
67 -54 136 -111 152 -126 17 -16 55 -42 86 -59 31 -18 73 -46 95 -63 21 -17
68 -46 105 -63 36 -18 81 -44 100 -58 46 -35 105 -63 159 -78 25 -7 92 -32
149 -57 57 -25 145 -54 195 -64 50 -10 134 -32 186 -49 52 -17 136 -35 185
-40 50 -5 144 -17 210 -25 138 -17 392 -20 515 -5 245 31 325 44 430 71 200
52 224 58 249 59 13 0 65 20 115 43 51 24 123 53 162 65 38 12 111 46 162 77
51 30 108 61 126 69 18 7 55 30 82 51 26 20 58 41 69 45 12 5 55 34 96 67 41
32 100 77 132 101 68 51 107 105 114 160 7 51 -8 94 -60 173 -23 35 -50 85
-60 109 -10 25 -43 95 -72 155 -30 61 -57 125 -60 144 -11 53 -45 123 -81 165
-18 21 -43 68 -55 103 -18 54 -65 154 -88 188 -4 6 -20 44 -36 85 -15 41 -36
86 -45 100 -37 52 -80 131 -80 145 0 20 -53 128 -79 161 -12 15 -21 31 -21 36
0 6 -6 24 -14 41 -8 18 -21 52 -31 77 -9 25 -34 72 -55 105 -21 33 -46 87 -55
120 -18 64 -48 105 -76 105 -31 0 -103 -95 -143 -188 -56 -132 -40 -127 -386
-127 -254 0 -289 2 -317 18 -53 29 -56 82 -8 153 14 20 30 55 36 78 6 22 31
78 56 124 24 46 58 122 74 169 16 47 41 106 56 132 15 25 46 83 68 127 23 45
59 104 82 130 22 27 48 61 57 76 22 34 149 130 196 149 25 10 82 14 205 14
193 0 200 -2 309 -91 94 -77 143 -133 183 -209 20 -38 55 -95 78 -126 26 -36
49 -83 63 -131 12 -41 32 -90 45 -109 30 -45 65 -118 71 -149 7 -40 17 -62 58
-123 22 -32 48 -81 58 -110 25 -72 46 -117 70 -152 20 -30 55 -128 64 -177 5
-31 19 -58 58 -115 15 -23 46 -86 68 -139 22 -53 46 -104 54 -113 20 -23 63
-116 72 -154 3 -18 23 -66 44 -107 20 -41 43 -93 50 -115 30 -94 74 -138 115
-111 38 25 128 210 140 288 3 18 12 80 20 137 9 57 18 107 21 112 24 40 24
518 0 557 -5 9 -32 176 -41 257 -3 30 -24 88 -52 145 -25 52 -54 119 -64 149
-11 30 -31 75 -45 100 -15 25 -49 85 -75 133 -97 176 -356 494 -453 555 -21
14 -57 42 -80 63 -22 20 -70 52 -106 70 -36 18 -83 49 -106 70 -23 21 -52 41
-65 45 -13 4 -56 27 -94 51 -39 24 -106 57 -150 75 -44 17 -95 43 -114 57 -48
36 -119 60 -198 68 -94 8 -118 15 -237 69 -32 15 -89 31 -125 37 -158 23 -712
42 -791 28z m1090 -2435 c15 -8 39 -31 52 -52 22 -36 23 -46 23 -223 0 -203
-4 -219 -62 -257 -23 -15 -52 -17 -269 -14 -237 2 -245 2 -284 -20 -57 -32
-122 -135 -175 -276 -14 -37 -41 -93 -59 -123 -19 -30 -43 -84 -55 -118 -54
-166 -87 -180 -436 -183 -240 -2 -264 2 -285 41 -21 40 -7 92 55 200 41 72
165 359 165 383 0 4 19 36 42 69 23 34 52 94 65 132 14 39 46 116 72 171 27
55 54 116 62 135 7 19 21 46 32 60 22 30 95 76 128 83 13 2 221 5 462 6 368 1
443 -1 467 -14z"/>
<path d="M10264 3606 c-56 -26 -144 -85 -187 -125 -16 -14 -45 -53 -65 -86
-20 -33 -53 -83 -74 -111 -21 -28 -49 -78 -62 -110 -40 -100 -55 -132 -65
-138 -5 -3 -26 -53 -46 -111 -21 -58 -60 -140 -87 -183 -46 -73 -49 -80 -46
-136 3 -51 7 -62 30 -79 30 -23 23 -22 314 -19 l212 2 40 41 c23 22 46 57 53
77 6 20 16 42 21 49 5 6 24 48 43 94 40 94 59 119 92 119 31 0 77 -50 92 -101
6 -21 28 -65 47 -98 19 -32 46 -90 60 -127 13 -38 33 -80 43 -94 29 -40 41
-68 77 -168 19 -53 38 -100 43 -106 21 -25 80 -137 91 -173 7 -21 41 -99 75
-173 34 -74 66 -146 70 -159 4 -13 24 -50 44 -81 21 -32 52 -98 69 -147 18
-50 46 -111 61 -136 16 -25 41 -78 56 -118 14 -40 42 -95 61 -122 20 -27 46
-68 59 -91 42 -75 53 -78 321 -78 264 0 278 3 290 67 7 41 -11 118 -36 155
-30 42 -80 140 -80 154 0 18 -27 71 -67 133 -19 28 -47 89 -64 134 -17 46 -34
88 -39 94 -22 27 -69 126 -84 176 -9 31 -32 80 -52 109 -20 30 -51 91 -69 137
-18 45 -46 103 -63 128 -16 25 -42 83 -57 130 -15 47 -42 108 -61 136 -19 27
-50 86 -68 132 -18 45 -54 116 -80 157 -25 41 -46 84 -46 97 0 12 -22 66 -50
120 -55 109 -90 188 -96 217 -2 11 -12 29 -22 40 -11 12 -36 50 -58 86 -54 90
-206 241 -283 280 -58 29 -66 30 -183 30 -108 0 -129 -3 -174 -24z"/>
<path d="M6175 3487 c-77 -26 -162 -76 -196 -115 -103 -121 -126 -171 -140
-307 -13 -133 -11 -2021 2 -2068 19 -69 46 -77 254 -77 204 0 249 10 279 62
17 28 18 75 17 784 -1 526 1 760 9 774 14 26 33 25 96 -4 54 -25 77 -49 178
-191 77 -108 156 -211 211 -274 22 -26 66 -83 97 -126 31 -44 66 -89 78 -100
12 -11 31 -37 41 -57 10 -20 45 -68 76 -107 32 -38 83 -102 113 -142 30 -40
81 -102 113 -137 32 -36 70 -86 84 -111 14 -25 43 -64 63 -86 21 -22 55 -65
78 -96 39 -54 131 -141 200 -188 45 -31 155 -62 227 -63 65 -1 202 32 238 57
12 8 52 49 89 91 75 85 92 124 107 252 14 109 16 2075 2 2099 -5 10 -21 29
-36 43 -27 25 -27 25 -223 25 -173 0 -202 -2 -235 -19 -21 -10 -43 -28 -49
-40 -8 -15 -11 -223 -9 -766 2 -580 0 -752 -10 -773 -19 -42 -53 -45 -117 -12
-45 24 -64 43 -109 109 -59 89 -82 118 -211 280 -48 60 -105 134 -127 165 -22
32 -57 80 -78 107 -21 27 -57 74 -80 105 -49 65 -127 164 -177 225 -19 23 -46
59 -60 79 -33 48 -120 160 -163 210 -19 22 -51 65 -72 95 -21 30 -68 86 -104
123 -55 57 -85 78 -176 123 -123 61 -204 76 -280 51z"/>
<path d="M12735 3490 c-16 -4 -63 -24 -103 -45 -85 -43 -121 -84 -183 -204
l-44 -85 -3 -1070 c-2 -971 -1 -1074 14 -1107 26 -58 45 -62 263 -60 210 3
253 11 285 54 19 26 19 46 20 634 1 594 1 609 22 643 11 19 30 36 41 38 32 5
78 -43 122 -128 22 -41 56 -105 76 -142 19 -37 35 -74 35 -81 0 -19 27 -73 62
-124 15 -23 42 -77 59 -120 18 -43 50 -105 73 -138 23 -33 55 -87 71 -119 17
-33 55 -85 86 -116 48 -49 71 -63 150 -94 79 -30 106 -36 170 -36 70 0 84 4
158 41 44 22 95 52 111 66 48 40 151 191 183 268 17 39 47 98 69 131 21 34 47
88 58 120 11 33 36 82 54 110 19 28 50 82 69 120 31 62 73 130 152 247 29 44
57 48 82 11 20 -31 19 1 14 -735 -4 -506 -3 -548 14 -582 29 -61 50 -67 250
-67 195 0 223 6 268 60 l27 32 -2 1082 c-2 820 -6 1086 -15 1097 -6 8 -14 26
-16 39 -10 52 -40 111 -72 138 -17 16 -72 51 -121 77 -82 45 -95 49 -159 49
-66 1 -74 -2 -155 -49 -98 -57 -202 -159 -252 -248 -18 -31 -48 -81 -66 -110
-19 -28 -49 -85 -68 -125 -18 -40 -47 -89 -63 -110 -16 -20 -39 -62 -51 -94
-11 -31 -32 -71 -45 -90 -45 -62 -76 -117 -94 -165 -10 -26 -34 -71 -54 -99
-20 -27 -50 -80 -66 -117 -17 -37 -41 -82 -54 -100 -13 -18 -38 -66 -56 -107
-42 -95 -55 -110 -100 -110 -30 0 -44 9 -92 59 -30 32 -61 74 -68 92 -31 83
-59 136 -91 175 -19 24 -43 65 -53 91 -10 26 -26 62 -35 80 -43 79 -100 179
-129 226 -38 60 -103 190 -103 204 0 6 -16 31 -36 57 -19 26 -50 80 -69 120
-40 87 -172 271 -218 301 -186 126 -225 140 -322 115z"/>
<path d="M9429 2117 c-24 -16 -41 -40 -58 -82 -12 -33 -34 -74 -47 -91 -24
-32 -84 -157 -84 -174 0 -6 -22 -55 -50 -110 -27 -55 -50 -105 -50 -112 0 -13
-38 -89 -103 -208 -19 -36 -41 -85 -47 -110 -7 -25 -32 -81 -56 -126 -51 -94
-55 -130 -18 -165 l26 -24 241 4 c133 2 251 7 262 11 11 4 37 26 57 47 45 51
133 224 129 255 0 4 20 37 44 73 25 36 52 90 59 119 25 97 58 148 112 176 47
24 58 25 301 30 l253 5 36 36 36 36 2 169 c2 120 -1 179 -10 202 -25 61 -31
62 -542 62 l-459 0 -34 -23z"/>
</g>
</svg>
